HIERARCHY
ROOT pelvis
{
  OFFSET 0 100 0
  CHANNELS 6 Xposition Yposition Zposition Zrotation Xrotation Yrotation
  JOINT pelvis_right_femur
  {
    OFFSET -10.78128 -3.44521 -0.5502486
    CHANNELS 3 Zrotation Xrotation Yrotation
    JOINT right_femur_tibia
    {
      OFFSET -0.8047443 -44.0398 -0.1307829
      CHANNELS 3 Zrotation Xrotation Yrotation
      JOINT right_tibia_foot
      {
        OFFSET 3.006224 -47.83518 -5
        CHANNELS 3 Zrotation Xrotation Yrotation
        End Site
        {
          OFFSET 0 -5 15
        }
      }
    }
  }
  JOINT pelvis_left_femur
  {
    OFFSET 10.78128 -3.44521 -0.5502486
    CHANNELS 3 Zrotation Xrotation Yrotation
    JOINT left_femur_tibia
    {
      OFFSET 0.8047443 -44.0398 -0.1307829
      CHANNELS 3 Zrotation Xrotation Yrotation
      JOINT left_tibia_foot
      {
        OFFSET -4.370144 -48.10324 -4.275266
        CHANNELS 3 Zrotation Xrotation Yrotation
        End Site
        {
          OFFSET 0 -5 15
        }
      }
    }
  }
  JOINT pelvis_spine1
  {
    OFFSET 0 6.468898 -3.129235
    CHANNELS 3 Zrotation Xrotation Yrotation
    JOINT spine1
    {
      OFFSET 0 23.15396 4.99043
      CHANNELS 3 Zrotation Xrotation Yrotation
      JOINT spine2
      {
        OFFSET 0 20.79997 -5.064912
        CHANNELS 3 Zrotation Xrotation Yrotation
        JOINT neck
        {
          OFFSET 0 14.38658 9.616178
          CHANNELS 3 Zrotation Xrotation Yrotation
          End Site
          {
            OFFSET 0 20 0
          }
        }
      }
      JOINT right_manubrium
      {
        OFFSET -5.722621 16.35077 3.967754
        CHANNELS 3 Zrotation Xrotation Yrotation
        JOINT right_clavicle
        {
          OFFSET -13.16364 1.694482 -4.693211
          CHANNELS 3 Zrotation Xrotation Yrotation
          JOINT right_humerus
          {
            OFFSET -28.5034 -0.3100689 -2.792744
            CHANNELS 3 Zrotation Xrotation Yrotation
            JOINT right_radius
            {
              OFFSET -25.15693 0.02248979 -1.271978
              CHANNELS 3 Zrotation Xrotation Yrotation
              End Site
              {
                OFFSET -15 0 0
              }
            }
          }
        }
      }
      JOINT left_manubrium
      {
        OFFSET 5.722621 16.35077 3.967754
        CHANNELS 3 Zrotation Xrotation Yrotation
        JOINT left_clavicle
        {
          OFFSET 13.16364 1.694482 -4.693211
          CHANNELS 3 Zrotation Xrotation Yrotation
          JOINT left_humerus
          {
            OFFSET 29.39168 -1.063119 -2.237045
            CHANNELS 3 Zrotation Xrotation Yrotation
            JOINT left_radius
            {
              OFFSET 24.59957 -0.9528479 0.9047498
              CHANNELS 3 Zrotation Xrotation Yrotation
              End Site
              {
                OFFSET 15 -0 -0
              }
            }
          }
        }
      }
    }
  }
}
MOTION
Frames: 7
Frame Time: 0.0416666666667
21.88841 101.5387 258.9652 -0.5737179 -3.73426 -1.938057 4.271187 11.68365 4.497024 -0 26.1422 -0 2.933533 -14.5577 -8.047909 2.752507 -29.20302 -0.9667817 -0 25.24216 -0 -9.399465 -9.755426 17.65069 1.604175 -1.932992 9.53732 -2.52202 11.50563 -2.616075 2.527554 18.48022 3.618149 1.408048 -13.26234 4.706551 1.447838 -24.2546 11.77382 79.76829 19.99319 -3.350858 -0 0 27.5452 -24.93805 10.05542 13.03134 1.827013 -16.61758 -2.552065 -90.48027 19.93645 26.99493 0 0 -12.82045 -0.6652114 5.53308 14.95478
22.96234 101.0642 266.6538 -0.6047253 -3.884488 -2.29041 3.556635 12.70531 4.840893 -0 32.24049 -0 4.226173 -10.8691 -8.330792 1.712809 -28.6782 -2.326768 -0 26.98881 -0 -9.269566 -9.824022 17.0786 1.474276 -3.149581 9.485983 -2.520879 11.59669 -2.660168 2.75181 18.76318 3.592033 1.335588 -13.224 5.001173 1.385413 -23.50326 11.31292 80.33243 19.49761 -3.934301 -0 0 27.83559 -25.28062 10.04428 13.07247 1.827729 -15.71569 -2.438308 -90.62204 20.12557 27.23452 0 0 -12.19618 -0.9691486 5.355822 15.63163
23.90263 101.2573 273.8012 -0.560232 -3.710675 -1.877251 3.071505 12.90064 4.64952 -0 39.61399 -0 5.027284 -7.097408 -8.633866 0.4216278 -26.1932 -3.567934 -0 29.43481 -0 -9.032346 -10.73125 16.42648 1.298499 -4.308216 9.285413 -2.533828 11.66002 -2.655675 2.870314 19.17092 3.605649 1.203364 -13.09343 5.277609 1.508794 -22.42388 10.88191 81.17572 19.25365 -5.19362 -0 0 27.05266 -25.42038 10.14488 12.84074 1.998622 -15.4762 -2.17251 -90.11534 20.44732 26.54181 0 0 -12.35183 -1.091565 5.252158 16.01877
24.82246 101.9174 280.7863 -0.5031909 -3.465415 -1.288478 2.7094 8.21181 5.033972 -0 47.1953 -0 4.591891 -6.147103 -9.255162 -0.3213293 -22.95211 -4.477452 -0 30.04423 -0 -8.458897 -12.7691 15.75591 1.179119 -5.359834 8.749735 -2.548939 11.94587 -2.789969 2.857518 19.802 3.703275 0.984182 -12.85662 5.584692 2.045083 -21.32848 10.64002 82.22821 19.28116 -6.793907 -0 0 25.43655 -25.31949 10.37691 12.37421 1.981442 -15.60256 -2.092727 -89.13863 20.91133 25.2343 0 0 -12.64279 -1.121997 5.171876 16.23735
25.71839 103.0836 287.1793 -0.5053956 -3.477071 -1.305618 2.927999 0.8419932 4.406631 -0 52.89491 -0 3.998019 -7.544763 -10.83506 -0.9899111 -18.55234 -5.034128 -0 29.4911 -0 -7.928413 -14.76204 15.24347 1.157567 -5.97955 8.120292 -2.50895 12.07517 -2.867022 2.558901 20.27896 4.057244 0.5748346 -12.82346 6.018625 2.887014 -20.23573 10.78135 83.31018 19.5257 -8.530204 -0 0 23.21112 -24.98022 10.71776 11.70671 1.825155 -16.14793 -2.287669 -87.90218 21.43471 23.1619 0 0 -13.22528 -1.085541 5.112484 16.30418
26.52217 104.4476 292.8573 -0.4565636 -3.240101 -0.7467468 3.475879 -5.645434 3.792039 -0 56.1224 -0 4.040211 -7.950501 -11.80389 -1.638375 -13.59618 -5.194262 -0 27.40221 -0 -7.589301 -16.36285 14.7201 0.9412629 -6.270756 6.996204 -2.152779 12.12782 -3.494729 2.254456 21.02914 4.44634 0.1719861 -12.512 6.495304 3.515856 -19.35649 10.81539 84.3721 19.85211 -10.28986 -0 0 21.06921 -24.59564 11.09224 11.05737 1.846549 -16.96853 -2.776423 -86.58115 21.95718 20.38963 0 0 -14.26436 -0.9981844 5.092896 16.19713
27.34755 105.6757 298.5979 -0.3606738 -2.741627 0.4184397 3.368691 -11.81885 4.263069 -0 56.29958 -0 3.994154 -7.255373 -12.16658 -2.230103 -9.079491 -5.421246 -0 24.78353 -0 -7.42206 -17.55845 14.15693 0.56444 -6.960048 5.720602 -1.471947 12.09216 -4.616564 2.130766 21.8453 4.725049 -0.1091693 -12.09726 6.9631 3.704491 -18.40207 10.45754 85.28281 20.10132 -12.29553 -0 0 19.14936 -24.29901 11.43452 10.52847 2.103412 -17.62417 -3.315664 -85.4152 22.41717 17.43423 0 0 -15.68496 -0.8943517 5.107583 15.87798
